<svg xmlns="http://www.w3.org/2000/svg" viewBox="0 0 527.55 250.02"><defs><style>.cls-1{fill:#ce7f9b;}.cls-1,.cls-4{opacity:0.72;}.cls-12,.cls-16,.cls-2{fill:#b3b3b3;}.cls-3{fill:#b2b2b2;}.cls-4{fill:#706f6f;}.cls-5{fill:#575756;}.cls-20,.cls-6{fill:#4e4d4d;}.cls-6{stroke:#fff;}.cls-11,.cls-12,.cls-13,.cls-14,.cls-16,.cls-17,.cls-6,.cls-9{stroke-miterlimit:10;}.cls-7{fill:#924863;}.cls-8{fill:#fff;}.cls-11,.cls-9{fill:none;}.cls-17,.cls-9{stroke:#3c3c3b;}.cls-10,.cls-13{fill:#f5b1d0;}.cls-11{stroke:#5d5d5c;}.cls-12{stroke:#333;}.cls-13{stroke:#4e3740;}.cls-14{fill:#924964;stroke:#924964;}.cls-14,.cls-16{stroke-width:0.25px;}.cls-15{fill:#362e32;}.cls-16{stroke:#b3b3b3;}.cls-17{fill:#3c3c3b;}.cls-18{fill:#2d2d27;}.cls-19{fill:#4d3e2c;}.cls-21{fill:#a08068;}.cls-22{fill:#bc9779;}.cls-23{fill:#ad7585;}.cls-24{fill:#343434;}.cls-25{fill:#1b1b1b;}.cls-26{fill:#010101;}.cls-27{fill:#ad7b55;}.cls-28{fill:#934964;}.cls-29{fill:#6c4c32;}.cls-30{fill:#5c3f2b;}.cls-31{fill:#e293bf;}</style></defs><g id="Ebene_1" data-name="Ebene 1"><path class="cls-1" d="M496.13,183.57l5.44.91.54,6.14,2.58,1,4.73-3.45,4.29,3.6-2.62,5.43,1.64,2.29,5.92-.82,2,5.5-4.91,3.3,0,2.48s5.56,2.34,5.59,2.67-.5,5.68-1,5.56-5.7.61-6,.52-1.18,2.37-1.18,2.37l3.62,4.78L513,230.37l-5.55-2.84-2.17,1.74s1,6.27.91,6.06-5.3,1.95-5.3,1.95-3.33-5.24-3.72-5.26a18.41,18.41,0,0,0-2.13.35l-2.86,5.84s-5.6-.84-5.61-1.26-.45-6.07-.58-6.28a11.92,11.92,0,0,0-2.07-.92L479,233.66l-4.47-3.76c-.12-.1,3-5.74,3-5.74L475.87,222l-6.36.67-1.83-5.21,5.21-3.66-.25-2.24-5.77-2.71.85-5.49,6.43-.5.75-2.11c-2.18-4.07-3.49-5.17-3.49-5.17l3.71-4.42,5.58,2.56,2-1.34-.81-6.18a60.13,60.13,0,0,1,5.68-2c.18.15,3.33,5.24,3.33,5.24l2.69-.29Z" transform="translate(-119.2 -90.85)"/><path class="cls-2" d="M251.45,92.63l3.84-1.37L257.85,95l2-.25,1.81-3.93,4.07.79.26,4.44,1.88.89,3.53-2.66,3.23,2.85-2,3.89.92,1.59s4.43-.5,4.57-.29,1.72,3.84,1.35,4-3.46,2.44-3.71,2.51.09,2,.09,2l4.06,1.77-.82,4.24-4.6.17-.78,1.9s2.93,3.67,2.77,3.58a32.23,32.23,0,0,0-2.72,3.16s-4-2.18-4.29-2a19.58,19.58,0,0,0-1.65,1.45l1,4s-4.3,1.83-4.45,1.57-2.47-3.76-2.63-3.85a9,9,0,0,0-1.67.15l-1.76,4.29-4.24-.82c-.11,0-.14-4.77-.14-4.77l-1.83-.82-3.86,2.71-3.06-2.7,2-4.23-1-1.36-4.69.33-1.43-3.85,4-2.64-.46-2.13a21.06,21.06,0,0,0-3.93-1.58l.81-4.18,4.52-.36.84-1.6-2.75-3.69S246,96,246.16,96.06s4,2.18,4,2.18l1.63-1.15Z" transform="translate(-119.2 -90.85)"/><path class="cls-3" d="M262.77,218.61l6.47-.68,2.53,6.81,3.26.38,4.29-5.4,6,2.75-1.28,7,2.58,2.09,6.47-2.79,3.94,5.63-4.54,5.29.83,2.81s7.06.9,7.19,1.27,1.22,6.61.6,6.63-6.28,2.48-6.69,2.49-.59,3.06-.59,3.06l5.61,4.28-2.86,6.26-7.2-1.47-1.92,2.65s3.15,6.79,2.94,6.6-5.41,3.88-5.41,3.88-5.42-4.9-5.87-4.81A33.53,33.53,0,0,0,276,275l.09,6.55s-7.35,1.22-7.48.75-2.42-6.75-2.63-6.95a14.26,14.26,0,0,0-2.64-.4l-4.35,6L252.76,278c-.17-.08,1.59-7.45,1.59-7.45l-2.54-2-7,2.75L241.09,266l4.77-5.79-1-2.47-7.4-1.27-.76-6.5,7.14-2.59.1-3.48a33.13,33.13,0,0,0-5.49-3.93l2.82-6.18,7.15,1.15,1.89-2.16L247.46,226s5.56-4.22,5.81-4.1,5.43,4.9,5.43,4.9l3-1.17Z" transform="translate(-119.2 -90.85)"/><path class="cls-1" d="M484.08,115.32l6.67-.69,2.62,7,3.36.39,4.42-5.57,6.2,2.83L506,126.5l2.66,2.16,6.68-2.88,4,5.81-4.68,5.46.86,2.89s7.28.93,7.42,1.31,1.25,6.82.62,6.84-6.48,2.55-6.9,2.57-.61,3.15-.61,3.15l5.78,4.42L519,164.68l-7.42-1.52-2,2.74s3.25,7,3,6.8-5.58,4-5.58,4-5.6-5.06-6.06-5a34.36,34.36,0,0,0-3.19,1.67l.09,6.77s-7.57,1.25-7.72.77-2.49-7-2.7-7.17a14.57,14.57,0,0,0-2.73-.42l-4.49,6.17-6.45-2.95c-.17-.08,1.64-7.68,1.64-7.68l-2.61-2-7.23,2.84-3.84-5.5,4.92-6-1-2.55-7.63-1.3-.78-6.71,7.36-2.67.1-3.58a34.55,34.55,0,0,0-5.66-4.06l2.91-6.37,7.37,1.19,2-2.23-2.95-7s5.73-4.35,6-4.24,5.6,5.06,5.6,5.06l3.05-1.2Z" transform="translate(-119.2 -90.85)"/><path class="cls-4" d="M373.86,128.89l8.08-4.76,7.41,7.41,4.5-1.46,2.38-9.66h9.53l2.51,9.93,4.63,1.19,6.82-7.54,8.53,5-2.78,9.66,2.78,3.18s9.8-3,10.19-2.65,5.56,7.94,4.77,8.34-6.75,7-7.28,7.28S437,159.2,437,159.2l9.92,2.25v9.92l-10.32,2.38-.93,4.64s8.21,7,7.81,6.88-4.76,8.33-4.76,8.33-10.06-3.17-10.59-2.78a30.81,30.81,0,0,0-2.38,2.78l2.65,10.72s-8.21,5-8.67,4.5-7.21-7.41-7.61-7.54a21.07,21.07,0,0,0-3.71,1.06l-2.11,10.45h-9.93c-.26,0-2.38-10.72-2.38-10.72l-4.5-1.06-7.54,7.81-8.08-4.76,2.78-10.46L373.86,191l-10.45,2.78-4.9-8.08,7.81-7.67L365,174.42c-7.28-2.92-10.19-2.92-10.19-2.92v-9.79l10.05-2.78,1.2-4-7.81-7.14S363,139,363.41,139s10.06,3.18,10.06,3.18l3.17-3.31Z" transform="translate(-119.2 -90.85)"/><path class="cls-4" d="M278,142.21l6.83-4,6.28,6.28,3.81-1.23,2-8.18H305l2.13,8.4,3.92,1,5.77-6.39,7.23,4.26-2.35,8.18,2.35,2.69s8.29-2.58,8.63-2.24,4.71,6.72,4,7.06-5.71,5.94-6.16,6.16.9,3.7.9,3.7l8.4,1.9v8.41l-8.74,2-.78,3.93s6.94,5.93,6.61,5.82-4,7.06-4,7.06-8.51-2.69-9-2.35a39.4,39.4,0,0,0-2.62,3.38l3.44,7.23s-7.54,5.07-7.94,4.63-6.1-6.28-6.44-6.39a17.79,17.79,0,0,0-3.14.9l-1.79,8.85H297c-.23,0-2-9.08-2-9.08l-3.81-.89-6.39,6.61-6.83-4,2.35-8.85L278,194.76l-8.85,2.35L265,190.28l6.61-6.5-1.66-3.91a39.75,39.75,0,0,0-8.09-1.58V170l8.52-2.36,1-3.36-6.61-6.05s4-7.51,4.37-7.51,8.51,2.69,8.51,2.69l2.69-2.8Z" transform="translate(-119.2 -90.85)"/><path class="cls-5" d="M493.76,184.74l5.44.91.53,6.15,2.58,1,4.73-3.46,4.3,3.61-2.63,5.43,1.64,2.29,5.93-.82,1.94,5.49-4.91,3.31.05,2.48s5.57,2.34,5.6,2.66-.51,5.69-1,5.57-5.7.6-6,.52-1.18,2.37-1.18,2.37l3.63,4.77-3.76,4.47L505,228.71l-2.17,1.74s1.05,6.26.92,6.05-5.31,2-5.31,2-3.33-5.24-3.72-5.26a18.55,18.55,0,0,0-2.12.35l-2.87,5.83s-5.6-.84-5.61-1.25-.44-6.07-.57-6.28a12.38,12.38,0,0,0-2.07-.93l-4.91,3.91-4.48-3.76c-.12-.1,3-5.73,3-5.73l-1.63-2.18-6.35.66-1.84-5.2,5.21-3.66-.25-2.24L464.5,210l.85-5.49,6.42-.51.76-2.11c-2.18-4.06-3.49-5.17-3.49-5.17l3.7-4.41,5.59,2.56,2-1.34-.81-6.18a60.13,60.13,0,0,1,5.68-2c.18.15,3.33,5.24,3.33,5.24l2.68-.29Z" transform="translate(-119.2 -90.85)"/><path class="cls-6" d="M370.53,133l8.08-4.77,7.41,7.41,4.5-1.45,2.38-9.66h9.53l2.51,9.92,4.63,1.19,6.82-7.54,8.53,5-2.78,9.66,2.78,3.18s9.8-3,10.19-2.65,5.56,7.94,4.77,8.34-6.75,7-7.28,7.28,1.06,4.36,1.06,4.36l9.92,2.25v9.93l-10.32,2.38-.93,4.63s8.21,7,7.81,6.88-4.76,8.34-4.76,8.34-10.06-3.18-10.59-2.78a30.81,30.81,0,0,0-2.38,2.78l2.65,10.72s-8.21,5-8.67,4.5-7.22-7.41-7.61-7.54a20.29,20.29,0,0,0-3.71,1L403,216.85H393c-.26,0-2.38-10.72-2.38-10.72l-4.5-1.06-7.54,7.81-8.08-4.76,2.78-10.46L370.53,195l-10.45,2.78-4.9-8.07L363,182l-1.32-3.57c-7.28-2.91-10.19-2.91-10.19-2.91v-9.79l10-2.78,1.19-4-7.8-7.15s4.76-8.86,5.16-8.86,10.06,3.17,10.06,3.17l3.17-3.31Z" transform="translate(-119.2 -90.85)"/><path class="cls-7" d="M259.25,220.69l6.47-.67,2.53,6.81,3.26.38,4.29-5.41,6,2.75-1.28,7,2.58,2.08,6.47-2.79,3.94,5.64L289,241.76l.84,2.8s7.05.91,7.19,1.27,1.21,6.61.6,6.63-6.28,2.48-6.69,2.5-.6,3.06-.6,3.06l5.61,4.28-2.86,6.26-7.2-1.48L284,269.74s3.16,6.79,2.94,6.59-5.41,3.88-5.41,3.88-5.42-4.9-5.87-4.8a33.76,33.76,0,0,0-3.1,1.62l.09,6.56s-7.34,1.21-7.48.75-2.41-6.76-2.63-7a14.26,14.26,0,0,0-2.64-.4l-4.35,6-6.26-2.86c-.17-.07,1.59-7.45,1.59-7.45l-2.53-2-7,2.75-3.72-5.34,4.77-5.79-1-2.47-7.4-1.26-.76-6.51,7.14-2.59.1-3.47a33,33,0,0,0-5.49-3.94l2.82-6.17,7.15,1.15,1.9-2.17-2.87-6.75s5.57-4.22,5.82-4.11,5.42,4.91,5.42,4.91l3-1.17Z" transform="translate(-119.2 -90.85)"/><ellipse class="cls-8" cx="146.29" cy="161.38" rx="18.03" ry="18.68"/><circle class="cls-8" cx="278.1" cy="78.11" r="24.28"/><circle class="cls-8" cx="372.47" cy="120.4" r="10.42"/><path class="cls-9" d="M288.88,132.26" transform="translate(-119.2 -90.85)"/><path class="cls-10" d="M266.45,116.08" transform="translate(-119.2 -90.85)"/><path class="cls-11" d="M273.8,145.53l6.84-4,6.27,6.27,3.81-1.23,2-8.18h8.06l2.13,8.4,3.93,1,5.77-6.38,7.22,4.25-2.35,8.18,2.35,2.69s8.29-2.57,8.63-2.24,4.71,6.73,4,7.06-5.71,5.94-6.16,6.16.9,3.7.9,3.7l8.4,1.91v8.4l-8.74,2-.78,3.92s6.95,5.94,6.61,5.83-4,7.06-4,7.06-8.52-2.69-9-2.36a40.63,40.63,0,0,0-2.61,3.38l3.43,7.23s-7.54,5.08-7.93,4.63-6.11-6.27-6.45-6.39a17.91,17.91,0,0,0-3.13.9l-1.8,8.85h-8.4c-.23,0-2-9.07-2-9.07l-3.81-.9-6.38,6.61-6.84-4,2.35-8.85-2.35-2.25L265,200.44l-4.15-6.84,6.61-6.5-1.66-3.91a40.74,40.74,0,0,0-8.09-1.58v-8.29l8.52-2.35,1-3.36-6.61-6.05s4-7.51,4.37-7.51,8.51,2.69,8.51,2.69l2.69-2.8Z" transform="translate(-119.2 -90.85)"/><path class="cls-12" d="M250,96.06l3.84-1.37,2.55,3.78,2-.25,1.82-3.93,4.06.78.26,4.45,1.88.89,3.53-2.66,3.23,2.85-2,3.89.93,1.58a33.51,33.51,0,0,1,4.56-.29c.14.21,1.72,3.85,1.35,4s-3.46,2.44-3.7,2.51.09,2,.09,2l4,1.78-.81,4.24-4.61.16-.77,1.9s2.92,3.67,2.76,3.58a35.08,35.08,0,0,0-2.72,3.17A34.22,34.22,0,0,0,268,127a21.16,21.16,0,0,0-1.64,1.45l1,4s-4.29,1.83-4.45,1.56-2.47-3.75-2.63-3.84a9,9,0,0,0-1.66.15l-1.77,4.28-4.24-.81c-.11,0-.13-4.77-.13-4.77l-1.84-.83-3.86,2.72-3-2.7,2-4.24-1-1.35-4.69.32L238.73,119l4-2.63-.46-2.13a20.64,20.64,0,0,0-3.92-1.59l.8-4.18,4.53-.35.83-1.6-2.74-3.69a42.92,42.92,0,0,1,2.93-3.36c.17,0,4,2.18,4,2.18l1.63-1.15Z" transform="translate(-119.2 -90.85)"/><circle class="cls-8" cx="138.69" cy="22.87" r="11.14"/><path class="cls-13" d="M300.83,174.14c-14.21-20-27.87-40.37-42.08-60.38" transform="translate(-119.2 -90.85)"/><path class="cls-13" d="M293,179.32c-11.9-22-24.33-43.54-36.24-65.56" transform="translate(-119.2 -90.85)"/><path class="cls-14" d="M394.5,169.76,257.57,113" transform="translate(-119.2 -90.85)"/><path class="cls-14" d="M397.67,165.93,257.57,111" transform="translate(-119.2 -90.85)"/><path class="cls-7" d="M480.54,117.8l6.67-.7,2.61,7,3.36.39,4.43-5.58,6.19,2.84-1.31,7.2,2.66,2.15,6.67-2.87,4.06,5.81-4.68,5.45.86,2.9s7.28.93,7.42,1.31,1.25,6.81.62,6.84-6.48,2.55-6.9,2.56-.61,3.16-.61,3.16l5.78,4.42-3,6.45L508,165.64l-2,2.74s3.25,7,3,6.8-5.58,4-5.58,4-5.6-5.05-6.06-5a34.69,34.69,0,0,0-3.2,1.67l.1,6.76s-7.58,1.26-7.72.77-2.49-7-2.71-7.17a15.25,15.25,0,0,0-2.72-.41L476.67,182l-6.45-3c-.18-.08,1.63-7.68,1.63-7.68l-2.61-2L462,172.19l-3.83-5.5,4.92-6-1-2.55-7.63-1.3-.78-6.71,7.36-2.67.1-3.58a33.7,33.7,0,0,0-5.66-4.06l2.91-6.37,7.37,1.18,2-2.22-3-7s5.74-4.35,6-4.23,5.6,5.06,5.6,5.06l3-1.21Z" transform="translate(-119.2 -90.85)"/><ellipse class="cls-8" cx="367.78" cy="59.47" rx="22.19" ry="22.97"/><circle class="cls-15" cx="138.37" cy="22.1" r="1.98"/><circle class="cls-7" cx="146.29" cy="161.83" r="3.52"/><path class="cls-16" d="M300.83,174.14" transform="translate(-119.2 -90.85)"/><line class="cls-16" x1="146.29" y1="158.31" x2="177.46" y2="85.56"/><line class="cls-16" x1="147.25" y1="163.06" x2="182.86" y2="85.56"/><line class="cls-17" x1="367.78" y1="57.06" x2="277.26" y2="75.83"/><line class="cls-17" x1="368.57" y1="62.47" x2="278.47" y2="80.31"/><circle class="cls-18" cx="278.19" cy="77.97" r="3.04"/><circle class="cls-18" cx="177.46" cy="85.56" r="5.4"/><circle class="cls-7" cx="367.78" cy="59.94" r="3.63"/></g><g id="Ebene_5" data-name="Ebene 5"><rect class="cls-19" x="17.25" y="18" width="63.73" height="85.65" rx="30.31"/><rect class="cls-20" x="23.68" y="78.3" width="51.33" height="62.29" rx="20"/><rect class="cls-20" x="23.08" y="123.87" width="51.93" height="16.71"/><rect class="cls-21" x="36.21" y="70.88" width="25.66" height="29.34" rx="12.83"/><polygon class="cls-20" points="56.51 105.97 37.41 101.79 32.03 80.3 56.51 105.97"/><polygon class="cls-20" points="42.78 105.97 61.41 101.79 66.65 80.3 42.78 105.97"/><rect class="cls-22" x="33.01" y="169.43" width="15.76" height="41.8" rx="7.88"/><rect class="cls-22" x="50.14" y="169.43" width="15.76" height="41.8" rx="7.88"/><path class="cls-20" d="M190.63,188.46V200.4a5.39,5.39,0,0,1-5.38,5.37h-2.38a5.38,5.38,0,0,1-5.37-5.37V188.46Z" transform="translate(-119.2 -90.85)"/><rect class="cls-20" x="179.17" y="178.71" width="41.57" height="13.02" rx="6.51" transform="translate(-13.22 -161.48) rotate(27.02)"/><rect class="cls-20" x="205.93" y="180.46" width="37.61" height="11.8" rx="5.9" transform="translate(397.18 109.17) rotate(143.02)"/><circle class="cls-22" cx="120.5" cy="84.17" r="7.76"/><polygon class="cls-8" points="55.31 140.58 43.38 140.58 49.34 134.61 55.31 140.58"/><circle class="cls-23" cx="49.34" cy="108.35" r="1.19"/><circle class="cls-23" cx="49.34" cy="117.9" r="1.19"/><circle class="cls-23" cx="49.34" cy="126.85" r="1.19"/><polygon class="cls-24" points="75.06 140.58 67.68 181.76 30.79 181.76 23.42 140.58 75.06 140.58"/><rect class="cls-20" x="48.77" y="205.06" width="30.84" height="12.33" rx="6.17"/><rect class="cls-22" x="50.83" y="187.93" width="15.08" height="21.93" rx="7.54"/><rect class="cls-25" x="32.33" y="205.06" width="27.41" height="12.33" rx="5.9"/><rect class="cls-22" x="33.7" y="187.93" width="15.08" height="21.93" rx="7.54"/><rect class="cls-20" x="117.69" y="179.77" width="39.15" height="13.2" rx="6.6" transform="translate(-193.99 2.75) rotate(-30)"/><rect class="cls-20" x="112.74" y="198.28" width="37.61" height="11.8" rx="5.9" transform="translate(123.4 -102.69) rotate(60)"/><circle class="cls-22" cx="21.14" cy="129.39" r="7.76"/><path class="cls-26" d="M148.64,121.43h0l0,0Z" transform="translate(-119.2 -90.85)"/><path class="cls-26" d="M148.64,121.43h0l0,0Z" transform="translate(-119.2 -90.85)"/><path class="cls-26" d="M148.64,121.43h0l0,0Z" transform="translate(-119.2 -90.85)"/><path class="cls-26" d="M173.55,106.12a.64.64,0,0,1,0,.07.36.36,0,0,1-.07-.1A.24.24,0,0,1,173.55,106.12Z" transform="translate(-119.2 -90.85)"/><path class="cls-26" d="M173.63,105.45a2.93,2.93,0,0,1-.08.67.64.64,0,0,1,0,.07.36.36,0,0,1-.07-.1,6.49,6.49,0,0,1-.39-.62,6.22,6.22,0,0,0,.54-.35C173.62,105.23,173.63,105.34,173.63,105.45Z" transform="translate(-119.2 -90.85)"/><path class="cls-26" d="M173.63,105.45a2.93,2.93,0,0,1-.08.67.64.64,0,0,1,0,.07.36.36,0,0,1-.07-.1,6.49,6.49,0,0,1-.39-.62,6.22,6.22,0,0,0,.54-.35C173.62,105.23,173.63,105.34,173.63,105.45Z" transform="translate(-119.2 -90.85)"/><path class="cls-26" d="M173.63,105.45a2.93,2.93,0,0,1-.08.67.64.64,0,0,1,0,.07.36.36,0,0,1-.07-.1,6.49,6.49,0,0,1-.39-.62,6.22,6.22,0,0,0,.54-.35C173.62,105.23,173.63,105.34,173.63,105.45Z" transform="translate(-119.2 -90.85)"/><rect class="cls-22" x="21.89" y="25.52" width="54.31" height="62.07" rx="27.16"/><circle class="cls-26" cx="39.2" cy="51.78" r="4.77"/><circle class="cls-26" cx="61.28" cy="51.78" r="4.77"/><circle class="cls-8" cx="37.65" cy="50.59" r="2.39"/><circle class="cls-8" cx="59.73" cy="50.59" r="2.39"/><ellipse class="cls-27" cx="151.83" cy="152.78" rx="2.39" ry="5.37" transform="translate(-165.12 147.32) rotate(-68.53)"/><ellipse class="cls-27" cx="186.45" cy="153.38" rx="5.37" ry="2.39" transform="translate(-170.91 22.92) rotate(-30)"/><ellipse class="cls-19" cx="153.69" cy="124.69" rx="16.35" ry="5.82" transform="translate(-162.95 20.19) rotate(-35.1)"/><ellipse class="cls-19" cx="181.1" cy="124" rx="5.82" ry="16.35" transform="translate(-136.04 127.99) rotate(-60)"/></g><g id="Ebene_6" data-name="Ebene 6"><polygon class="cls-28" points="471.96 143.64 490.19 139.65 495.32 119.14 471.96 143.64"/><polygon class="cls-28" points="485.06 143.64 467.27 139.65 462.27 119.14 485.06 143.64"/><rect class="cls-29" x="479.34" y="204.23" width="15.05" height="39.9" rx="7.52"/><rect class="cls-29" x="462.99" y="204.23" width="15.05" height="39.9" rx="7.52"/><rect class="cls-30" x="466.83" y="100.34" width="24.5" height="37.6" rx="12.25"/><rect class="cls-28" x="573.49" y="203.73" width="49" height="63.81" rx="20" transform="translate(1076.79 380.41) rotate(-180)"/><rect class="cls-28" x="573.49" y="251.59" width="49.57" height="15.95" transform="translate(1077.36 428.27) rotate(-180)"/><path class="cls-28" d="M576.91,226.52v11.39A5.15,5.15,0,0,0,582,243h2.28a5.16,5.16,0,0,0,5.13-5.13V226.52Z" transform="translate(-119.2 -90.85)"/><rect class="cls-28" x="610.42" y="211.15" width="37.37" height="13.79" rx="6.89" transform="translate(994.15 584.17) rotate(-155.78)"/><rect class="cls-28" x="615.15" y="229.94" width="35.9" height="11.27" rx="5.63" transform="translate(-32.8 541.49) rotate(-56.38)"/><circle class="cls-29" cx="503.29" cy="159.59" r="7.41"/><rect class="cls-28" x="550.59" y="215.14" width="37.37" height="13.79" rx="6.89" transform="translate(1031.18 -57.76) rotate(140.68)"/><rect class="cls-28" x="534.24" y="216.26" width="35.9" height="11.27" rx="5.63" transform="translate(611.23 698.84) rotate(-129.32)"/><circle class="cls-29" cx="420.68" cy="116.29" r="7.41"/><circle class="cls-31" cx="478.79" cy="145.92" r="1.14"/><circle class="cls-31" cx="478.79" cy="155.04" r="1.14"/><circle class="cls-31" cx="478.79" cy="163.58" r="1.14"/><circle class="cls-31" cx="511.84" cy="154.47" r="1.14"/><circle class="cls-31" cx="423.53" cy="125.41" r="1.14"/><rect class="cls-20" x="569.1" y="329.09" width="29.44" height="11.77" rx="5.89" transform="translate(1048.44 579.11) rotate(-180)"/><rect class="cls-29" x="462.99" y="221.89" width="14.39" height="20.93" rx="7.2"/><rect class="cls-25" x="588.07" y="329.09" width="26.17" height="11.77" rx="5.89" transform="translate(1083.11 579.11) rotate(180)"/><rect class="cls-29" x="479.34" y="221.89" width="14.39" height="20.93" rx="7.2"/><polygon class="cls-24" points="476.07 176.75 479.62 234.32 497.38 234.32 500.93 176.75 476.07 176.75"/><polygon class="cls-24" points="480.17 176.75 476.63 234.32 458.87 234.32 455.32 176.75 480.17 176.75"/><path class="cls-26" d="M617,156.47s0,0,0,0,0,0,0,0S617,156.47,617,156.47Z" transform="translate(-119.2 -90.85)"/><path class="cls-26" d="M617,156.47s0,0,0,0,0,0,0,0S617,156.47,617,156.47Z" transform="translate(-119.2 -90.85)"/><path class="cls-26" d="M617,156.47s0,0,0,0,0,0,0,0S617,156.47,617,156.47Z" transform="translate(-119.2 -90.85)"/><path class="cls-26" d="M568.85,182.35a9.28,9.28,0,0,0-.07,1.19c0,6.93,6.44,12.55,14.39,12.55a15.86,15.86,0,0,0,8.4-2.36,16,16,0,0,0,8.58,2.36c6.07,0,11.17-3,12.54-7.1a9.35,9.35,0,0,0,5.92,2.08,9.1,9.1,0,0,0,9.22-9q0-.36,0-.72h0c6.32,0,11.44-5.78,11.44-12.91a13.55,13.55,0,0,0-4.09-9.88,3,3,0,0,0,0-.52,5.69,5.69,0,0,0-.69-2.72,5.71,5.71,0,0,0,1.43-3.73c0-3.57-3.47-6.46-7.75-6.46h-.41c-.48-5.25-4.41-9.33-9.18-9.33h-.45a8.4,8.4,0,0,0-8.41-7.19A8.59,8.59,0,0,0,605,130.1a8,8,0,0,0-15,.62,7.51,7.51,0,0,0-1.24-.41,7.85,7.85,0,0,0-8.18,3,7.15,7.15,0,0,0-4.73-1.78,6.92,6.92,0,0,0-7,6.82,6.64,6.64,0,0,0,.51,2.56,9.89,9.89,0,0,0-8.63,10,10.27,10.27,0,0,0,2.75,7A13.15,13.15,0,0,0,557,169.19,13.41,13.41,0,0,0,568.85,182.35Zm24.3-41.44a5.69,5.69,0,0,0,.52.33,5.94,5.94,0,0,1-.38.59.21.21,0,0,1-.06.1.64.64,0,0,0,0-.07,2.73,2.73,0,0,1-.07-.64C593.14,141.12,593.15,141,593.15,140.91ZM617,156.45s0,0,0,0,0,0,0,0S617,156.46,617,156.45Z" transform="translate(-119.2 -90.85)"/><path class="cls-26" d="M593.21,141.86a.64.64,0,0,1,0,.07.21.21,0,0,0,.06-.1S593.24,141.85,593.21,141.86Z" transform="translate(-119.2 -90.85)"/><path class="cls-26" d="M593.14,141.22a2.73,2.73,0,0,0,.07.64.64.64,0,0,1,0,.07.21.21,0,0,0,.06-.1,5.94,5.94,0,0,0,.38-.59,5.69,5.69,0,0,1-.52-.33C593.15,141,593.14,141.12,593.14,141.22Z" transform="translate(-119.2 -90.85)"/><path class="cls-26" d="M593.14,141.22a2.73,2.73,0,0,0,.07.64.64.64,0,0,1,0,.07.21.21,0,0,0,.06-.1,5.94,5.94,0,0,0,.38-.59,5.69,5.69,0,0,1-.52-.33C593.15,141,593.14,141.12,593.14,141.22Z" transform="translate(-119.2 -90.85)"/><path class="cls-26" d="M593.14,141.22a2.73,2.73,0,0,0,.07.64.64.64,0,0,1,0,.07.21.21,0,0,0,.06-.1,5.94,5.94,0,0,0,.38-.59,5.69,5.69,0,0,1-.52-.33C593.15,141,593.14,141.12,593.14,141.22Z" transform="translate(-119.2 -90.85)"/><rect class="cls-29" x="453.15" y="60.8" width="51.85" height="59.25" rx="25.92"/><circle class="cls-26" cx="488.48" cy="85.87" r="4.56"/><circle class="cls-26" cx="467.4" cy="85.87" r="4.56"/><circle class="cls-8" cx="487.34" cy="84.73" r="2.28"/><circle class="cls-8" cx="466.26" cy="84.73" r="2.28"/><ellipse class="cls-27" cx="613.95" cy="186.4" rx="5.13" ry="2.28" transform="translate(-144.83 146.76) rotate(-21.47)"/><ellipse class="cls-27" cx="580.9" cy="186.97" rx="2.28" ry="5.13" transform="translate(9.33 505.71) rotate(-60)"/></g></svg>