<?xml version="1.0" encoding="utf-8"?>
<!-- Generator: Adobe Illustrator 25.2.3, SVG Export Plug-In . SVG Version: 6.00 Build 0)  -->
<svg version="1.1" xmlns="http://www.w3.org/2000/svg" xmlns:xlink="http://www.w3.org/1999/xlink" x="0px" y="0px"
	 viewBox="0 0 287.7 88.7" style="enable-background:new 0 0 287.7 88.7;" xml:space="preserve">
<style type="text/css">
	.st0{fill:#C69C6C;}
	.st1{fill:#CD7E9B;}
	.st2{fill:#904762;}
	.st3{fill:#C05D82;}
	.st4{fill:#3C3C3B;}
	.st5{fill:#302F30;}
</style>
<g id="Ebene_1">
	<path class="st0" d="M279.5,44.6h-44.1c-1.4,0-2.6-1.2-2.6-2.6v-7.9c0-1.4,1.2-2.6,2.6-2.6h44.1c1.4,0,2.6,1.2,2.6,2.6V42
		C282.1,43.4,281,44.6,279.5,44.6z"/>
	<polygon class="st1" points="228.9,36.3 285.7,36.3 277.4,62.4 237.2,62.4 	"/>
	<path class="st1" d="M273.6,31.8h-37.8c-1.1,0-2-0.9-2-2v-5c0-1.1,0.9-2,2-2h37.8c1.1,0,2,0.9,2,2v5
		C275.6,30.9,274.7,31.8,273.6,31.8z"/>
	<path class="st1" d="M268.6,25.1H241c-0.8,0-1.5-0.7-1.5-1.5v-3.8c0-0.8,0.7-1.5,1.5-1.5h27.6c0.8,0,1.5,0.7,1.5,1.5v3.8
		C270.1,24.4,269.4,25.1,268.6,25.1z"/>
	<path class="st1" d="M263.5,20.6h-15.1c-0.5,0-1-0.4-1-1v-2.5c0-0.6,0.5-1,1-1h15.1c0.6,0,1,0.5,1,1v2.5
		C264.5,20.1,264.1,20.6,263.5,20.6z"/>
	<path class="st2" d="M277,31.8h-32.1c-1.1,0-2-0.9-2-2v-5c0-1.1,0.9-2,2-2H277c1.1,0,2,0.9,2,2v5C279,30.9,278.1,31.8,277,31.8z"/>
	<path class="st2" d="M273,25.1h-24c-0.8,0-1.5-0.7-1.5-1.5v-3.8c0-0.8,0.7-1.5,1.5-1.5h24c0.8,0,1.5,0.7,1.5,1.5v3.8
		C274.5,24.4,273.8,25.1,273,25.1z"/>
	<path class="st2" d="M264.4,20.6h-12.8c-0.6,0-1-0.4-1-1v-2.5c0-0.5,0.4-1,1-1h12.8c0.6,0,1,0.5,1,1v2.5
		C265.4,20.1,265,20.6,264.4,20.6z"/>
	<path class="st3" d="M270.2,31.8h-27.6c-1.1,0-2-0.9-2-2v-5c0-1.1,0.9-2,2-2h27.6c1.1,0,2,0.9,2,2v5
		C272.2,30.9,271.3,31.8,270.2,31.8z"/>
	<path class="st3" d="M266.2,25.1h-19.5c-0.8,0-1.5-0.7-1.5-1.5v-3.8c0-0.8,0.7-1.5,1.5-1.5h19.5c0.8,0,1.5,0.7,1.5,1.5v3.8
		C267.7,24.4,267,25.1,266.2,25.1z"/>
	<path class="st3" d="M262.2,20.6h-11.5c-0.6,0-1-0.4-1-1v-2.5c0-0.6,0.4-1,1-1h11.5c0.5,0,1,0.4,1,1v2.5
		C263.2,20.1,262.7,20.6,262.2,20.6z"/>
	<path class="st3" d="M251.5,16.1c0-0.6,0.6-1.1,1.3-1.4c0.7-0.3,1.4-0.4,2-0.7c0.9-0.4,1.5-1.2,1.7-2c0.2,0,0.4,0.2,0.5,0.4
		c0.4,0.8,1.4,1.2,2.3,1.7s1.8,1.1,1.7,2"/>
	<polygon class="st3" points="228.9,36.3 281.2,36.3 273.6,62.4 236.5,62.4 	"/>
	<polygon class="st3" points="228.9,36.3 281.2,36.3 273.6,62.4 236.5,62.4 	"/>
	<polygon class="st1" points="228.9,36.3 276.7,36.3 269.7,62.4 235.9,62.4 	"/>
	<polygon class="st3" points="233.9,36.3 272.2,36.3 266.6,62.4 239.5,62.4 	"/>
	<polygon class="st2" points="238.4,36.3 276.7,36.3 271.1,62.4 244,62.4 	"/>
</g>
<g id="Ebene_2">
	<g>
		<path class="st4" d="M28.6,62.8l-0.1,0.9l-0.9,0.3l-0.1,0.4l-0.5-0.2l-0.6,0.4l-0.4,0c-0.6,0-1-0.1-1.2-0.4
			c-0.2-0.3-0.4-0.4-0.4-0.4l-0.2,0.1c-0.5-0.3-0.9-0.7-1.2-1.2l0.1-0.1l-0.7-0.8l-0.2-1l-0.4-0.7l-0.2-0.9L21,58.4l-0.6-3.4l0-1.4
			c-0.2-0.4-0.3-0.7-0.3-1.1c0,0-0.1,0-0.1,0c-0.1,0-0.2,0-0.2,0L19,53.6l-0.7,0.6c0,0.1-0.2,0.4-0.7,0.9l-0.4,0.2
			c-0.1,0.1-0.4,0.3-0.8,0.7c0,0.2-0.1,0.4-0.4,0.5L15.7,57l-0.6,0.2L14.6,58l-2.8,2.2l-1.2,0.8l-0.4,0.4c-0.2,0.1-0.4,0.2-0.5,0.3
			L9,61.8l-0.1,0.4l-0.1,0l0.1,0.1H8l-0.2,0.1l0.2,0.1l-0.8,0.1c-0.4-0.4-0.6-0.7-0.8-0.8v-0.7l-0.3-0.3l-0.4-2.2l-0.1-0.3l-0.1-1.5
			l0.2-0.7l-0.1-0.6l0.1-0.6l-0.1-1.9l-0.1-0.3c0.1-0.1,0.2-0.2,0.3-0.3s0.2-0.3,0.2-0.5l-0.2-0.3L5.8,51l-0.3-0.6V50l0.3-0.5
			l-0.1-0.7l0.2-1.1l-0.1-1.4l0.1-0.8l-0.1-0.1h0.3c0-0.3,0.1-0.4,0.2-0.4h0.1c0,0,0-0.1-0.1-0.1C7,44.9,7.4,45.3,7.6,46l-0.3,0.4
			l-0.4,2.2c0,0.3-0.1,0.5-0.1,0.6c0,0.2,0.1,0.6,0.4,1.1c-0.3,1.5-0.5,2.7-0.5,3.5c0,0.2,0,0.4,0,0.5c0,0.1,0.1,0.3,0.3,0.5
			c-0.1,0.3-0.1,0.9-0.1,1.6l-0.3,0.4L7,57.2l-0.3,0.2c-0.1,0.2-0.1,0.4-0.1,0.5c0,0.3,0.1,0.6,0.2,0.8c0.1,0.3,0.2,0.6,0.3,1
			c0.1,0.4,0.2,0.7,0.4,0.9H8l0.8,0l0.1-0.2c0.2,0,0.2-0.1,0.3-0.1c0.1,0,0.1,0,0.2,0.1v0c0-0.1,0.1-0.2,0.2-0.2l0.1-0.5l0.7,0.2
			l0.3-0.6l0.6-0.2c0.1-0.2,0.2-0.3,0.4-0.3c0.1,0,0.2,0,0.3,0.1l0.1-0.4c0.5-0.3,0.8-0.5,1-0.5v-0.3l0.4-0.1l0.2-0.2
			c0.2,0,0.4,0,0.4-0.1c0.1-0.1,0.1-0.3,0.2-0.7l1-0.5l0.1-0.4l0.2,0.1l0.3-0.6l0.6-0.3l0.1-0.2l0.4-0.3v-0.5l0.3-0.2l0.4-0.5
			l0.6-0.3l0.1-0.3h0.2l-0.1-0.1c0.2-0.3,0.4-0.4,0.6-0.4h0.1v-0.4l0.2-0.1l0.8-1.6c0.1-0.3,0.2-0.6,0.3-1l0.1-0.8l0.2-0.4
			c0.1-0.1,0.1-0.4,0.2-0.8l0.1-0.6c0-0.2,0.1-0.5,0.2-0.8l0.4-0.3l0.6,0.3c0.2,0.2,0.4,0.5,0.8,0.7l-0.2,0.3L23,47
			c0,0.3-0.2,0.4-0.5,0.4l-0.1,0.1v0.3l-0.2,0.4V49l-0.3,0.7l0.1,0.9c-0.2,0.3-0.4,0.5-0.4,0.6c0,0.2,0.1,0.3,0.2,0.4
			s0.2,0.2,0.3,0.3L21.8,52l-0.2,0.5l0.2,0.6l-0.1,1.1l0.3,0.6h-0.1c-0.2,0-0.2,0.1-0.2,0.2c0.1,0.4,0.2,0.9,0.2,1.3
			c0.2,0.2,0.3,0.3,0.3,0.4c0,0.1,0,0.1-0.1,0.2l0.2,0.8c0.2,0.8,0.5,1.8,0.9,2.9l0.4,0.6c0.1,0.4,0.3,0.6,0.5,0.8l1,1l1.3,0.3
			l0.2-0.3l0.4,0.2c0.2-0.2,0.3-0.3,0.4-0.3c0.1-0.2,0.3-0.3,0.5-0.3L28.6,62.8z"/>
		<path class="st4" d="M42,59.6l-0.2,0.3c-0.1,0.1-0.2,0.5-0.5,1.1l-0.5,0.4l0,0.2h-0.5l-0.5,0.5h-0.6l-0.4,0.2
			c-0.1,0-0.2,0.1-0.4,0.2c-0.2-0.1-0.3-0.1-0.5-0.1c-0.1,0-0.3,0-0.5,0.1v0.2l-0.7-0.1l-0.5,0.1l-0.5-0.1l-0.1,0.1l-0.2-0.1
			l-0.3,0.1H35c-0.2,0-0.3,0-0.5,0.1l-0.4-0.1l-0.3,0.2l-0.1-0.2l-0.3,0.2c-0.3-0.2-0.6-0.3-0.8-0.3c-0.1,0-0.2,0-0.3,0.1
			c-0.2-0.1-0.4-0.1-0.6-0.2l-0.8-0.1c-0.2,0-0.4,0-0.6,0.1l-0.1-0.1l-0.3,0.2c-0.1-0.1-0.2-0.1-0.3-0.1l-0.1-0.2
			c-0.8,0-1.1-0.6-1.1-1.6l0.8-0.1l0-0.3l0.2-0.2l0.1,0.2h0.2v0.2l0.3-0.2c0.2,0,0.3,0.1,0.3,0.3c0,0.1,0,0.2-0.1,0.3l0.3,0v0.6
			l0.9,0.1l0.4,0.3l0.1-0.2l4.7-0.3l1.6-0.3l0.1-0.2l0.4-0.1l0.1-0.1c0.6-0.1,1-0.3,1.5-0.6l0.1,0.1l0.1-0.2l0.3-0.2l0-0.1l-0.2-0.2
			l0.1-0.3l-0.4-0.3l-0.1-0.3c-0.2-0.1-0.3-0.1-0.4-0.2l-0.2,0.1l-0.4-0.3h-0.1l-0.2-0.2h-0.4c-0.1-0.2-0.2-0.3-0.4-0.3l-0.2,0
			c-0.4,0-0.8-0.1-1.1-0.4h-0.4L36,56.9l-0.2,0.1l-0.1-0.2h-0.2L35,56.6l-1.1-0.5l-0.4-0.4l-1.2-0.2l0-0.1l-1-0.7l-0.5-1.2l-0.4-0.6
			l-0.1-1.7l0.1-0.2c0-0.5,0.1-0.9,0.4-1.2c0.5-0.3,0.7-0.5,0.7-0.8l0.2,0c0.1-0.3,0.3-0.6,0.7-0.9l0.4-0.4l2.1-0.9l1.1-0.2l1.1-0.3
			l1.6,0.1l0.1,0.2h0.1c0.2,0,0.4,0.1,0.5,0.2v0.3l0.4,0.3c-0.1,0.6-0.2,0.9-0.2,1c0,0.2-0.1,0.3-0.3,0.3c-0.1,0-0.3-0.3-0.5-0.8
			l-1-0.1l-0.2,0.1c-0.4-0.3-0.6-0.4-0.7-0.4c-0.1,0-0.1,0-0.1,0.1L36.4,48c-0.4,0-0.7,0.1-1,0.3c-0.5,0.1-0.8,0.2-0.9,0.4h-0.4
			L33.7,49c-0.1,0.1-0.3,0.1-0.7,0.2l-0.1,0.2l-0.2,0.1L32.2,50l-0.3,0.5c-0.3,0.2-0.5,0.4-0.5,0.4l-0.4,1.5l0.2,0.1v0.1
			c0,0.4,0.2,0.8,0.6,1v0.2l1,0.6h0.2l0.5,0.5h0.7l0.4,0.4l0.8,0.1l0.2,0.2l1.6,0.5c0,0.1,0.1,0.2,0.3,0.2c0.3,0,0.6,0.1,0.8,0.2
			c0.2,0.1,0.5,0.2,0.7,0.3l0,0.2l0.3,0.2h0.7l0.6,0.4c0.1,0.3,0.2,0.5,0.5,0.7l0,0.1l0.2,0.2l0.3,0.1L41.6,59
			C41.8,59.2,41.9,59.4,42,59.6z"/>
		<path class="st4" d="M58.7,62.1l-0.5,0.2L58,62.7c-0.2,0-0.4,0.1-0.6,0.2l-0.2-0.1L57,62.9l-0.6-0.7v-0.8l-0.3-0.2l0.1-1.1
			l-0.2-2.3l0.1-0.8L56,56.5l0.3-0.2L56.1,56l0.1-0.3l0.2-0.1l0-0.4h0.2v-0.7l0.1-0.4c-0.1,0-0.2-0.1-0.3-0.3l-0.6,0.3
			c-0.2,0.3-0.3,0.5-0.5,0.6l0,0.4l-0.4,0.2l-0.1,0.5l-0.2,0.2V56c-0.2,0.2-0.4,0.4-0.5,0.6l-0.2,0.2l-0.6,1l-0.9,0.9l-0.3,0.5
			L51.1,60l-0.2,0.4l-1.1,0.7l-1.2,1.4l-0.4,0.1c-0.1,0-0.3,0.1-0.6,0.4h-0.1c-0.2,0-0.4-0.2-0.5-0.6c-0.9-0.4-1.4-0.9-1.4-1.5
			l0.3-0.2c-0.2-0.5-0.3-0.9-0.3-1.4l-0.2-0.1l0.1-0.2c0-0.1,0.1-0.2,0.1-0.4c0-0.2,0.1-0.4,0.1-0.7l0.2-1.4c0,0,0-0.1,0-0.2
			c0-0.1,0-0.3,0.1-0.4c0-0.2-0.1-0.3-0.1-0.4c0-0.1,0-0.2,0.1-0.4l0.1,0c0.2-0.3,0.3-0.5,0.3-0.7c0-0.1,0-0.2-0.1-0.3
			c-0.1-0.1-0.1-0.1-0.1-0.1c0-0.1,0.1-0.1,0.2-0.2c-0.2,0-0.3-0.1-0.3-0.2s0.1-0.2,0.4-0.2v-0.1c0-0.3,0.1-0.5,0.2-0.7
			c0.1-0.2,0.2-0.4,0.2-0.5L46.9,52l0.5-0.8v-0.2c0-0.5,0.2-1,0.5-1.3l0-0.7L48,49c-0.1-0.1-0.1-0.2-0.1-0.4c0-0.1,0.1-0.1,0.2-0.1
			v-0.6c0.1,0,0.2-0.1,0.2-0.2c0-0.1,0-0.1,0-0.2c0.1-0.1,0.2-0.3,0.5-0.6c0.3-0.3,0.4-0.5,0.5-0.7h0.1c0.3,0,0.4-0.1,0.4-0.2
			c0,0,0-0.1-0.1-0.2c0.5,0,0.7-0.1,0.8-0.3l0.7-0.3l1.9,0.2v0.1l1.5,0.3h0.1c0.2,0,0.3,0.1,0.3,0.3l0.2-0.1
			c0.1,0.2,0.2,0.3,0.4,0.3l0.2,0l0.3,0.3l0.8,0.2v0.3c0.3-0.2,0.8-0.4,1.3-0.6v0.6H58l0.4,0.2l-0.1,0.1l0.3,0.9l-0.3,0.4l-0.1,0.6
			c0,0.2-0.2,0.5-0.3,0.8l0.2,0.5c0,0-0.1,0.1-0.2,0.3c-0.1,0.2-0.2,0.4-0.2,0.8c0.1,0,0.1,0.1,0.1,0.2l-0.1,0.3l0,0.2l-0.1,0.4
			l0.1,0.3l-0.2,0.2l0.1,0.8l-0.1,0.1l0.1,0.2l-0.1,0.1c0,0,0,0.1,0,0.1c0,0.1,0,0.2-0.1,0.3l0.1,0.2l-0.2,0.3
			c-0.1,0.1-0.1,0.2-0.1,0.5l0.1,0.5L57,57c0.1,0.2,0.2,0.4,0.3,0.5c-0.2,0.2-0.3,0.7-0.4,1.4l0.3,0.1l0,0.2c0,0,0,0.1,0,0.2
			c0,0.2-0.1,0.4-0.3,0.7h0.2l0.1,0.6l0.7,0.1l0.2,0.5c-0.1,0-0.1,0.1-0.1,0.1c0,0.1,0.1,0.2,0.4,0.4h0c0,0-0.1,0-0.1,0
			C58.4,61.8,58.5,61.9,58.7,62.1z M56.8,49l-0.2-0.7L56,48.1l-1-0.9c-0.2-0.1-0.3-0.1-0.4-0.1c-0.1,0-0.2,0-0.3,0.1L54.1,47h-0.6
			l-0.2-0.2L53,46.9l-0.2-0.2l-0.3,0.1l-0.6-0.1c-0.3,0-0.7,0.1-1.3,0.4l0.1,0.1l-0.3,0.1l-0.1,0.1l-0.4,0.1v0.2
			c-0.2,0.1-0.5,0.5-0.8,1.2c-0.2,0.7-0.4,1.4-0.7,1.9l0.3,0.1l-0.5,0.4l0.1,0.3C48.1,52,48,52.4,48,52.8V53l-0.3,0.4V54
			c-0.2,0.2-0.3,0.4-0.3,0.7l-0.1,0.1v0.7l-0.1,0.2c0,0.2,0,0.6-0.1,1l0.2,0.4c-0.2,0.1-0.3,0.2-0.5,0.4l0.1,0.3l-0.2,0.3l0.3,0.7
			l-0.3,0.4l0,0.9l-0.1,0.4l0.2,0.1l0.1,0.2c0.2,0.1,0.4,0.2,0.5,0.4l0.8-0.2c0.2-0.4,0.4-0.5,0.8-0.6l-0.1-0.3
			c0.4-0.1,0.6-0.1,0.6-0.2c0,0,0-0.1,0.1-0.2s0.1-0.3,0.3-0.4h0.1c0.1,0,0.1,0,0.1-0.1l0.7-0.8h-0.1l0.4-0.4
			c0.1-0.1,0.3-0.2,0.6-0.3l0.3-0.7c0.5-0.2,0.7-0.4,0.8-0.8h0.2l0.4-0.5l-0.1-0.3l0.3-0.1c0-0.1-0.1-0.1-0.1-0.2s0.1-0.2,0.2-0.4
			c0.2-0.2,0.3-0.4,0.4-0.6l0.2,0.1c0-0.3,0.2-0.5,0.4-0.7c0-0.2,0.1-0.3,0.3-0.5c0.1-0.1,0.2-0.2,0.3-0.2h0.2l0-0.4
			c0,0,0.1-0.1,0.1-0.1c0-0.1,0-0.1-0.1-0.2c0.2-0.4,0.4-0.6,0.5-0.7l0.1-0.4l0.2-0.2l-0.1-0.3c0.1-0.2,0.2-0.4,0.3-0.7l0.3-0.3
			L56.8,49z"/>
		<path class="st4" d="M76.5,56.9l-0.2,0.3l0.1,0.9l-0.8,1.1v0.4l-0.5,0.6l0.2,0.3c-0.2,0.2-0.5,0.6-0.8,1.1l-0.7,0.4
			c-0.1,0.2-0.3,0.3-0.5,0.3c-0.2,0-0.4,0.1-0.6,0.1l-0.1,0.2l-0.1-0.1l-0.3,0.1L72,62.6c-0.1,0-0.3,0.1-0.5,0.2l0.1,0.2l-0.5-0.1
			L71,63.1l-0.2-0.2L70,63.2l-0.3-0.4L69,62.9l-0.6-0.2c-0.4-0.1-0.8-0.3-0.9-0.6L67,62.1l-0.2-0.7c0-0.2-0.2-0.3-0.5-0.4l-0.3,0.1
			l-0.5-0.2l-0.6-1.2l0.1-0.3L64.8,59v-0.7L64.6,58l0.1-0.6l-0.3-0.3l0.1-0.4v-1.2l0.1-0.4l0.1-2.3l0.1-0.9l-0.1-0.1l0.2-0.8
			L65,50.4v-0.5l0.2-0.3c0-0.7-0.1-1.1-0.2-1.2l0.3-1.2L65.1,46l0.2-0.1l-0.2-0.4v-0.7l-0.1-1.1l0.1-0.3l-0.1-0.7l0.1-0.1
			c-0.1-0.1-0.2-0.1-0.2-0.2c0,0,0-0.1,0.1-0.2c0.1-0.1,0.1-0.2,0.1-0.3v-0.1l-0.1-0.3c0-0.2,0.1-0.3,0.1-0.5c0-0.3-0.1-0.5-0.3-0.8
			c0-0.2,0.1-0.3,0.2-0.3l-0.2-0.5L65,39l-0.3-0.7l0.4,0l0-0.3l0.3-0.1c0.1,0.1,0.2,0.3,0.2,0.6l0.4,0.3l-0.2,0.2l0.5,0.6l-0.2,0.3
			l-0.2,0.1c0.2,0.2,0.3,0.3,0.3,0.3c0,0.1,0,0.1-0.1,0.2l0.2,0.2l-0.2,0.2l0.3,0.2c-0.1,0.1-0.2,0.2-0.2,0.4l0.3,0.7l-0.1,0.4
			l0.1,0.1l-0.2,0.1c0.1,0.2,0.2,0.3,0.2,0.4c0,0.1-0.1,0.2-0.3,0.4l0.4,0.1c-0.1,0.3-0.1,0.6-0.1,0.8s-0.1,0.5-0.3,0.7
			c0.2,0.1,0.3,0.3,0.3,0.7l-0.1,0.4l0.1,0.3L65.9,48l0.3,0.5l-0.3,0.6l0.1,0.6L65.9,50l0.2,0.3l-0.3,0.3l0.1,0.2l0,0.3l0,0.2
			l-0.1,0.3l0.2,0.3l-0.2,0.3l0.2,0.4l-0.2,0.1c0.1,0.2,0.1,0.3,0.1,0.4c0,0.2-0.1,0.3-0.2,0.4l0.2,0.2l-0.1,0.6v1.4
			c0.2,0.2,0.3,0.3,0.3,0.3c0.2,0,0.2-0.2,0.2-0.6v-0.1c0.1-0.1,0.2-0.2,0.4-0.4c0.1-0.2,0.2-0.3,0.2-0.3v-0.2l0.2-0.2
			c0-0.5,0.1-0.8,0.3-1l0-0.7l0.2,0l0-0.2l0.1,0.1l0.1-0.5l0.2-0.5v-0.2l0.2-0.4l-0.1-0.3l0.3-0.5l0.2-0.1v-0.2
			c0.2-0.1,0.3-0.3,0.3-0.6l0.4-0.5l0.2,0.1v-0.2l0.2-0.2c0-0.2,0.2-0.5,0.5-0.9c-0.1-0.1-0.1-0.1-0.1-0.2c0-0.1,0.1-0.1,0.2-0.1
			l0.1-0.2c0.1,0,0.3-0.1,0.7-0.4l0.2-0.6h0.2l-0.1-0.2c0.2-0.2,0.6-0.2,1-0.2l-0.3-0.1l0.4-0.2h0.1l-0.1-0.1l0.2-0.1l-0.1-0.1h0.4
			l0,0.1l0.9,0.1l0.2,0.4c0.1,0.1,0.1,0.4,0.2,1l0.3,0l0.1,0.5l0.3,0.3v0.4l0.1,0.2l0,0.3l0.4,0.2l0.1,0.7v0.1
			c0,0.2,0.1,0.6,0.4,1.1c-0.1,0.2-0.2,0.4-0.3,0.4c0.1,0.1,0.2,0.2,0.3,0.2c0.1,0,0.2,0,0.2-0.1c0,0.3-0.1,0.5-0.3,0.6l0.2,1.5
			c0.1,0,0.1,0.1,0.1,0.2l-0.1,0.3l0,1.9l0.1,0.3l-0.1,0.6L76.5,56.9z M75.7,54.2l-0.1-0.8v-0.6l-0.3-1.9L75,49.6l-0.5-1.2l-0.9-1.4
			c0-0.1-0.1-0.3-0.3-0.4l-0.6,0.1l-0.2-0.1l-0.2,0.3L71.8,47v0.5c0,0-0.1,0.1-0.3,0.1c-0.2,0-0.3,0.2-0.4,0.5
			c-0.3,0.3-0.5,0.5-0.6,0.6c-0.1,0.2-0.2,0.3-0.4,0.5h-0.2l-0.2,0.8l-0.3,0.4l-0.5,1.2c0,0.4-0.1,0.7-0.2,0.9
			c-0.1,0.2-0.3,0.5-0.5,0.8l0,0.6l-0.5,0.7L67.5,56l-0.4,0.3c0,0,0,0,0,0.1c0,0,0,0.1,0,0.1c0,0.1,0.1,0.3,0.1,0.6
			c0,0.3-0.1,0.6-0.2,0.9l-0.3,0.1l0.2,0.6l-0.3,0.1l0,0.4l-0.1,0.3c-0.2,0.1-0.3,0.3-0.3,0.4c0,0.1,0.1,0.2,0.2,0.2
			c-0.1,0.1-0.1,0.2-0.1,0.2c0,0.1,0,0.1,0.1,0.2l0.8-0.3l0.5,0c0,0.1,0,0.1,0.1,0.1h0c0.3,0,0.4,0.1,0.5,0.3l0.1-0.2l0.1,0.3
			c0.3,0,0.4,0.1,0.5,0.2v0.5c0.2,0.1,0.4,0.2,0.6,0.5h1.2l1-0.2l0.1-0.2l0.2,0.1l0.3-0.2c0.1-0.1,0.4-0.2,0.8-0.3l-0.1-0.2h0.3
			v-0.2h0.1c0.2,0,0.3-0.1,0.4-0.4c0.1-0.3,0.1-0.5,0.2-0.5l1-1.1v-0.5l0.4-0.8v-1l0.1-1.1l0-0.5L75.7,54.2z"/>
		<path class="st5" d="M78.9,62.4v-2.3h4.6V51h-4.6v-2.3H88v11.4h4.6v2.3H78.9z M83.5,46.4v-4.6H88v4.6H83.5z"/>
		<path class="st5" d="M94.9,62.4v-2.3h4.6v-16h-4.6v-2.3h9.1v18.3h4.6v2.3H94.9z"/>
		<path class="st5" d="M110.9,62.4v-2.3h4.6V51h-4.6v-2.3h9.1v11.4h4.6v2.3H110.9z M115.5,46.4v-4.6h4.6v4.6H115.5z"/>
		<path class="st4" d="M132,48.7l2.5,0.1l2.4-0.1l0.6,0l0.2,0h1.3c0.2,0,0.4,0.1,0.4,0.3c0,0.2-0.2,0.4-0.6,0.5
			c-0.1,0-0.2-0.1-0.3-0.1c-0.2,0-0.3,0.1-0.5,0.2l-0.5-0.1l-1,0c-0.5,0.2-0.9,0.4-1.4,0.4l-0.7-0.1l-0.4,0.3h-0.3v-0.2l-0.6,0.3
			h-0.3l-0.1,0.3c-0.2-0.1-0.6-0.1-1.1-0.1c0,0.1-0.1,0.2-0.2,0.2c0,0-0.1,0-0.2-0.1l-0.5,0.1l-0.4,0.4l-0.1,1.8l0.1,1.1l-0.1,1.4
			l0,1.5l0.1,0.7v0.7l0.4,0.9v0.2c0,0.4,0.2,0.8,0.7,1.2l0.1,0.3l0.7,0.1l0.5,0.5l1.4,0.2l1.8-0.4l0.5,0.2l1.3-0.6l0.5,0.1
			c0.2,0.2,0.2,0.3,0.2,0.5c0,0.2-0.2,0.4-0.5,0.6l-0.3-0.1l-0.6,0.5l-1.2,0.1l-0.4,0.2l-0.4-0.2c-0.4,0.2-0.8,0.3-1.3,0.3l-0.7-0.1
			h-0.4l-1.3-0.8l-0.6-0.9l-0.4-0.5l-0.7-1.8l-0.3-1.6l0.2-0.7l-0.3-0.4l0.1-0.4l-0.1-0.7l0.4-0.3l-0.2-0.3l0.1-0.4l-0.2-0.5
			l0.1-0.7l-0.1-0.4l0.2-0.1v-1.3c-0.1-0.3-0.2-0.5-0.3-0.5c-0.1,0-0.2,0-0.2,0.1l-0.4-0.2l-0.6,0.1l-0.6-0.4h-0.3
			c-0.3,0-0.4-0.2-0.4-0.5l0-0.6l-0.2-0.2l0.1-0.3l0.5,0.1l0.4-0.1l0.6,0.2h1.5l0.1-0.8v-0.8l-0.2-0.6l0.3-0.2
			c0-0.1,0.1-0.2,0.1-0.3c0-0.2-0.1-0.3-0.3-0.4l0.1-1.4l-0.3-0.4l0.1-0.3c-0.2,0-0.4-0.1-0.4-0.3l0.2-1c0.2-0.3,0.3-0.4,0.3-0.5
			c0.7,0.4,1.1,0.6,1.1,0.6v0l-0.1,0.4c0.2,0.3,0.2,0.6,0.2,0.8v0.1c-0.1,0.2-0.1,0.4-0.1,0.5c0,0.1,0,0.2,0.1,0.3l0,0.3l0,0.4
			l-0.3,0.5l0.2,0.9l-0.1,1.1l0.1,0.2l-0.2,0.3l0.3,0.9h0.7L132,48.7z"/>
		<path class="st4" d="M159.3,55.5c-0.2,0.2-0.4,0.4-0.4,0.7c0,0.1,0,0.2,0,0.4l0.2,1.3l-0.2,1.4l0.1,0.6l-0.2,0.5l0.1,1.6l-0.1,0.2
			v1.3l-0.1,1l0.1,0.4l-0.1,2.4l0.2,0.4l-0.2,0.2l0.1,0.7l-0.2,0.2l0.1,0.6h-0.1l-0.1,0.3v0.6l-0.2,0.4l0.1,0.3l-0.8,1.4l-0.1,0.7
			l-0.2,0l-0.3,0.4c-0.3,0.3-0.5,0.7-0.7,0.9l-0.7,0.4c-0.2,0.6-0.5,0.8-1.1,0.8c0,0,0,0.1,0,0.1c0,0.1,0,0.1-0.1,0.1l-0.2,0.1
			c-0.3,0.2-0.5,0.3-0.6,0.4h-0.4l-0.1,0.1l-0.5-0.1l-0.7,0.5l-0.4-0.1l-1.2,0.2l-0.3,0l-0.2,0l-1.1-0.2h-0.3l-0.4-0.3l-0.2,0
			l-1.3-0.4l-0.9-0.1l-0.2-0.4l-0.6-0.1l-0.2-0.6l-0.3-0.1l-0.5-0.7l-0.5-0.2l-0.5-0.7c-0.1-0.1-0.2-0.2-0.3-0.3l-0.6-0.3l0.2-0.5
			l-0.3-0.4l0-0.2c0-0.2-0.1-0.6-0.2-0.9c0-0.2-0.1-0.4-0.1-0.5c0-0.2,0-0.4,0.1-0.7l0.1-0.4v-0.1l0.2-0.1l0.1-0.2l0.1,0l0.1-0.4
			c0-0.2,0.3-0.5,0.9-1l0.5-0.1l0.9-0.8l1,0.1c0.2-0.2,0.3-0.4,0.4-0.4c0.2,0,0.2,0.1,0.2,0.3c0,0.1,0,0.1,0,0.2l-0.5,0.2l-0.3,0.3
			c-0.1,0.1-0.4,0.2-0.8,0.3l-0.2,0.5h-0.5c-0.2,0.4-0.6,0.9-1,1.3l0,0.7c-0.2,0.3-0.3,0.6-0.3,0.9l-0.2,0.1l0.8,1.9l0.7,0.3
			l0.1,0.4l1.1,1.1l0.4,0.1c0.2,0.1,0.3,0.1,0.5,0.3l0.5,0.5h0.6l0.4,0.4l0.6-0.1l0.2,0.2l2.1-0.1l0.3-0.1v0.1c0,0.1,0,0.2,0.1,0.2
			c0,0,0,0,0.1-0.1c0.2-0.2,0.6-0.4,0.9-0.4h0.2l1.2-0.5v0.2c0.2-0.1,0.2-0.2,0.2-0.2h-0.1c0,0,0.1-0.1,0.2-0.1c0.1,0,0.1,0,0.2,0
			c0-0.2,0.1-0.3,0.3-0.3h0.1l0.1-0.2c0.2,0,0.2-0.1,0.2-0.3h0c0.1,0,0.2-0.1,0.3-0.3s0.2-0.3,0.3-0.3l0.1,0.1
			c0-0.3,0.2-0.6,0.6-0.8c0.3-0.3,0.4-0.6,0.4-1h0.2c0.4-0.8,0.6-1.4,0.8-1.9l-0.1-0.1l0.1-0.9l0.2-0.1v-0.8l0.1-0.2l-0.3-0.4
			c0.2-0.2,0.3-0.3,0.3-0.4c0,0,0-0.1-0.1-0.3s-0.1-0.3-0.1-0.6v-0.1l0.1-1.5v-2.1l-0.2-0.4l0.2-0.7l-0.1-0.8v-1.9l-0.1-0.4l0.1-0.4
			l-0.1-0.3l0.1-0.3l-0.1-1.4l-0.3-0.3l0.3-0.3l-0.1-0.3l0.1-0.6l-0.2-0.2l0.1-0.4l-0.2-0.4c-0.1,0.1-0.3,0.2-0.5,0.3l-0.2,0.4
			l-0.3,0.2l-0.1,0.4l-0.6,0.4l0.1,0.2l-0.3,0.4l-0.2,0.1l-0.1,0.2l-0.6,0.2v0.5h-0.3l-0.1,0.4l-1.2,1.1l-0.8,0.9l-0.4,0.1l-0.2,0.3
			L151,60l-0.3,0.1c0,0-0.2,0.2-0.7,0.6l-0.1,0.3l-0.3,0.2h-0.3l-0.2,0.3l-0.4,0.1l-0.7,0.7l-0.7,0.1l-0.3,0.2
			c-0.2,0.1-0.4,0.1-0.7,0.3l-0.1,0.3c-0.1,0.1-0.4,0.1-0.8,0.1c-0.5,0-0.9-0.1-1-0.3l-0.7-1.2l-0.1-0.6l-0.4-1.3v-1.2l-0.1-0.4
			l0.2-0.9l-0.2-0.6l0.2-0.2l0-0.5l0.2-0.6l0-0.8l0.2-0.5l-0.2-0.3l0.4-1.7l-0.1-1.1l0.1-1l-0.3-1.4l0.1-0.3l-0.1-0.3l0.3-0.7
			l-0.1-0.3l0.2-0.2v-0.5l0.4,0c0.1,0.3,0.3,0.6,0.5,0.7l-0.1,0.2l0.2,0.1l-0.1,0.5l0.3,0.5l-0.1,0.2l0.1,0.6l0.2,0.1l-0.2,0.6
			l0.2,0.9l-0.4,0.6l0.2,0.2l-0.2,1.4v1.3l-0.2,0.2l-0.1,1.9l-0.4,0.5l0.1,0.3v0.8l0.2,0.5l-0.2,0.4l0.1,0.6l-0.1,0.3l0.1,0.3v0.4
			l0.4,0.4l0.1,0.4l0.2,0l0.1,0.2l0.3-0.2l0.8,0.1l0.3-0.6l0.9-0.4l0,0.1c0-0.2,0.1-0.3,0.3-0.4c0.2-0.1,0.4-0.2,0.6-0.4
			c0.2-0.2,0.5-0.4,0.8-0.5l0,0.2c0.1,0,0.2-0.1,0.2-0.2c0,0,0-0.1-0.1-0.2c0.2,0,0.6-0.3,1.2-0.8s1.1-0.8,1.7-0.9l0.4-0.7l0.1,0.2
			v-0.3c0.4-0.1,0.5-0.3,0.6-0.6l0.4-0.3c0.2-0.1,0.4-0.3,0.4-0.5v-0.1c0.3-0.2,0.6-0.4,0.9-0.5l0.1-0.3c0.5-0.5,0.8-0.9,0.9-1.2
			c0.4-0.2,0.6-0.4,0.8-0.7l0.7-1.4l0-0.8l0.3-0.1v-0.7l-0.2-0.6l0.1-0.5l-0.3-0.2l0-0.1c0-0.1,0.1-0.2,0.2-0.4
			c0.1-0.2,0.2-0.3,0.2-0.5l0.1-0.1l0-0.2c0.1-0.1,0.3-0.1,0.4-0.1l0.8,0.8l0,0.4l0,0.4c0,0.1,0.1,0.3,0.3,0.7l-0.2,0.2l0.1,0.5
			l-0.1,0.4l0.3,0.3l-0.3,0v0.5l-0.2,0.7l0.2,0.9l0,0.7l0.1,0.2l-0.1,0.7L159.3,55.5z"/>
		<path class="st4" d="M190.4,50.3l-0.7,0.7l-0.6-0.1l-0.5,0.4l-0.4-0.2l-1.4,0.4l-0.3,0.5l-0.6-0.5l-0.8,1.1h0.3
			c0,0.4-0.2,0.8-0.5,1.1h0.1c0.1,0,0.2,0.1,0.2,0.3c0,0.6-0.1,1.2-0.2,1.6l0.2,0.2c0,0.2,0,0.4-0.1,0.4c-0.1,0.1-0.1,0.2-0.1,0.3
			c0,0.1,0,0.4,0.1,0.7l-0.2,0.2l0,1.8l-0.3,2h0.1l-0.1,0.6l0.1,0.2l-0.1,0.6l0.1,0.3c0.1,0.2,0.1,0.5,0.1,0.7
			c0,0.1-0.1,0.2-0.2,0.4l0,0.2c0,0.2-0.1,0.5-0.3,0.7l0-0.4c-0.3-0.5-0.5-0.9-0.5-1.1v-1.4l-0.2-0.5l0.3-0.2l-0.3-0.1l-0.1-0.6
			v-0.5l0.1,0l-0.1-0.4l0.1-1.4l0-1.3l0.3-0.9l-0.2-0.3l0.2-0.3v-2.3l0.1-1.2l-0.7,0.2l-0.2-0.2l-0.3,0.2l-0.4-0.1
			c-0.4,0.2-0.7,0.3-1,0.2c-0.2,0-0.4-0.1-0.5-0.1c-0.2,0-0.3,0-0.5,0.1l-1.4,0.5l-1.7-0.2l-0.2,0.1c-0.3-0.1-0.6-0.2-0.7-0.2
			c-0.1,0-0.3,0.1-0.6,0.2c-0.3,0.1-0.5,0.2-0.6,0.2l-0.6-0.1l-0.2,0.5l-0.6-0.5l-0.9,0.2l-0.4-0.2l-0.3,0.3l-0.4-0.1
			c-0.1,0-0.4-0.1-0.7-0.3l0,0.2l-0.3-0.1c-0.5,0-0.9,0.1-1.2,0.2c-0.3,0.1-0.5,0.5-0.5,1.1v1.3l-0.1,1l0.1,0.6l-0.3,0.7l0.3,0.6
			l-0.2,1.6l0.2,0.6l-0.1,0.9l0.2,0.6l-0.1,0.3l0.1,0.6l-0.1,0.1c-0.4-0.1-0.6-0.3-0.7-0.7l-0.1-1.7c-0.5-0.6-0.7-0.9-0.7-1.1
			c0-0.3,0.2-0.5,0.6-0.6l-0.2-0.2l0-0.6l-0.1-0.4l-0.2-2.9v-0.9l-0.1-0.5l-0.6-0.4l-0.1-1.1l0.8-0.6c0.2-0.7,0.4-1.3,0.4-1.8
			c0-0.1,0-0.3-0.1-0.6l0.3,0.1l-0.2-0.4l-0.1-1.4l0.2-0.8l-0.2-1.4v-0.8l0.2-0.9l0.7-0.4c0.3,0.2,0.5,0.4,0.8,0.5l0,0.6l0.3,0.4
			c-0.2,0.6-0.2,0.9-0.2,1c0,0.2,0.1,0.3,0.2,0.4c0,0.1,0,0.2,0,0.4c0,0.4-0.1,1.3-0.4,2.8l0.2,0.6l-0.2,0.4c0,0.4-0.1,0.8-0.2,1.4
			h0.8l0.4,0.1l0.9-0.1l0.6,0.1l0.8-0.1l0.7,0.3v-0.1c0-0.2,0.1-0.2,0.2-0.2c0.1,0,0.2,0,0.3,0.1h0.6l1.4-0.1c0.3,0,0.4,0,0.6,0.1
			l0.3-0.3l0.2,0.2c0.5,0.1,0.9,0.1,1,0.1c0.1-0.1,0.3-0.1,0.3-0.1l0.1,0l4-0.4l1.6,0.1l-0.3-0.5l0.2-0.2l-0.2-0.8l0.2-0.6l-0.2-1.6
			l0.2-0.6l-0.7-2.2c0-0.1-0.1-0.2-0.1-0.3c0-0.2,0.1-0.3,0.2-0.4c0.2-0.1,0.3-0.2,0.3-0.2h0.2l-0.1-0.7h0.6l0.2,0.4l0.7-0.1v0.6
			l0.4-0.1v0.7l-0.2,0.5l0.3,0.9V46l0.2,0.5l-0.3,0.7l0.1,0.6l-0.2,2.9l0.9-0.1l0.8-0.1l1.4-0.4l0.6,0.1l0.5-0.1H190.4z M191.3,50.3
			l-0.6,0.4c-0.2,0-0.2-0.1-0.2-0.3c0-0.2,0.1-0.3,0.4-0.3C191.1,50.1,191.2,50.2,191.3,50.3z"/>
		<path class="st4" d="M209.2,60.7c0.2,0,0.4,0,0.6,0c0.3,0,0.4,0.1,0.4,0.3c0,0.2-0.1,0.4-0.4,0.6l-0.3,0.1l-0.2,0.2
			c0,0.1-0.3,0.2-0.6,0.4l-0.6,0.2c-0.1,0.1-0.5,0.2-1.2,0.2c-0.1,0-0.2,0-0.5-0.1c-0.3-0.1-0.5-0.2-0.6-0.2l-1.2-1.1l-0.3-1.1
			l-0.4-0.3v-0.2c0-0.4-0.1-0.7-0.2-0.9l0-0.9c0.1-0.4,0.1-0.7,0.1-0.8c0-0.3-0.1-0.5-0.2-0.8l0.1-1.6l-0.4,0.2l-0.2,0.4l-0.3,0.2
			c-0.1,0.1-0.2,0.2-0.4,0.4l-0.3,0c-0.3,0.2-0.4,0.5-0.4,0.7c-0.4,0.2-0.6,0.4-0.7,0.6c-0.1,0.3-0.3,0.5-0.6,0.8
			c-0.3,0.3-0.5,0.5-0.6,0.5c-0.1,0-0.3,0.1-0.3,0.2l-1.1,1.3h-0.1l-0.9,1l-0.7,0.4l-0.3,0.5c-0.4,0.1-0.9,0.3-1.5,0.6l-0.6-0.4
			c-0.1,0-0.1,0-0.2,0c-0.1,0-0.2-0.1-0.2-0.2c0-0.1,0-0.2,0-0.2l-0.4-0.2c0-0.1,0-0.2,0.1-0.4l-0.5-0.5l0.3-0.4h-0.4l-0.3-0.7
			l0.3-0.2l-0.3-0.5c0-0.6,0-0.9,0.1-0.9l0-0.6c0-0.2,0.1-0.5,0.2-0.8l-0.3-0.2c0.2-0.3,0.3-0.5,0.3-0.7c0-0.1-0.1-0.3-0.2-0.6
			c0.1-0.1,0.2-0.3,0.2-0.6c0-0.1,0-0.3,0-0.5l-0.1-1.2l0.4-2.6c0-0.4-0.1-0.9-0.2-1.4l-0.1-0.6c0-0.4,0.2-0.6,0.6-0.6l0.5,0.1
			l0.3,0.3l-0.2,0.8l-0.1,1.8l0.1,1.2l-0.2,0.6l0.1,0.4l-0.1,0.6v0.5c-0.1,0-0.1,0.1-0.1,0.2s0.1,0.2,0.1,0.2c0,0.1,0,0.3-0.1,0.4
			l0.2,0.3l-0.4,0.4l0.2,0.3l-0.1,0.5l0.1,0.6v0.7l0.2,0.2l-0.2,0.9c0,0.1,0.1,0.3,0.2,0.6l-0.1,0.4l0.2,0.5
			c0.2,0.1,0.5,0.4,0.8,0.7c0.3,0,0.5-0.2,0.7-0.4c0.2-0.2,0.5-0.4,0.8-0.6c0,0,0,0-0.1,0c0.4-0.2,0.6-0.4,0.6-0.6
			c0.3,0,0.5-0.1,0.6-0.1l0.1-0.4l0.4-0.1c0.3-0.3,0.7-0.6,1.2-0.7l0-0.4l0.7-0.6c0.1-0.5,0.3-0.7,0.8-0.7l0.1-0.5l0.3-0.1l0.5-0.7
			h0.2v-0.2l0.3-0.2l0.2-0.5c0.3-0.2,0.6-0.3,0.9-0.4l0.1-0.4l0.3-0.1v-0.2l0.1,0c0.1-0.6,0.3-0.9,0.6-0.9l-0.1-0.1l0.7-2h0.2v-0.5
			h0c0.1,0,0.3-0.4,0.6-1.3l0.6-0.1l-0.1,0.1l0.4,0.7l-0.3,1.4l-0.5,0.8l-0.4,1.4l-0.5,0.3v0.8l-0.3,0.5l0.1,0.6l-0.2,0.2l0.1,1.6
			l-0.1,2l0.1,0.2l0,0.3h0.1v0.6c0.4,0.6,0.6,0.9,0.6,1.1l0.5,0.1l0.1,0.3c0.3,0.1,0.6,0.3,0.9,0.4l0.5,0l0.4,0.1l0.6-0.2
			C208.6,61.1,208.9,60.9,209.2,60.7z"/>
		<path class="st4" d="M226,56.9l-0.2,0.3l0.1,0.9l-0.8,1.1v0.4l-0.5,0.6l0.2,0.3c-0.2,0.2-0.5,0.6-0.8,1.1l-0.7,0.4
			c-0.1,0.2-0.3,0.3-0.5,0.3c-0.2,0-0.4,0.1-0.6,0.1l-0.1,0.2l-0.1-0.1l-0.3,0.1l-0.2-0.1c-0.1,0-0.3,0.1-0.5,0.2l0.1,0.2l-0.5-0.1
			l-0.1,0.2l-0.2-0.2l-0.7,0.4l-0.3-0.4l-0.7,0.1l-0.6-0.2c-0.4-0.1-0.8-0.3-0.9-0.6l-0.4-0.1l-0.2-0.7c0-0.2-0.2-0.3-0.5-0.4
			l-0.3,0.1l-0.5-0.2l-0.6-1.2l0.1-0.3l-0.2-0.4v-0.7l-0.1-0.3l0.1-0.6l-0.3-0.3l0.1-0.4v-1.2l0.1-0.4l0.1-2.3l0.1-0.9l-0.1-0.1
			l0.2-0.8l-0.1-0.5v-0.5l0.2-0.3c0-0.7-0.1-1.1-0.2-1.2l0.3-1.2l-0.2-1.2l0.2-0.1l-0.2-0.4v-0.7l-0.1-1.1l0.1-0.3l-0.1-0.7l0.1-0.1
			c-0.1-0.1-0.2-0.1-0.2-0.2c0,0,0-0.1,0.1-0.2c0.1-0.1,0.1-0.2,0.1-0.3v-0.1l-0.1-0.3c0-0.2,0.1-0.3,0.1-0.5c0-0.3-0.1-0.5-0.3-0.8
			c0-0.2,0.1-0.3,0.2-0.3l-0.2-0.5l0.1-0.4l-0.3-0.7l0.4,0l0-0.3l0.3-0.1c0.1,0.1,0.2,0.3,0.2,0.6l0.4,0.3l-0.2,0.2l0.5,0.6
			l-0.2,0.3l-0.2,0.1c0.2,0.2,0.3,0.3,0.3,0.3c0,0.1,0,0.1-0.1,0.2l0.2,0.2l-0.2,0.2l0.3,0.2c-0.1,0.1-0.2,0.2-0.2,0.4l0.3,0.7
			l-0.1,0.4l0.1,0.1l-0.2,0.1c0.1,0.2,0.2,0.3,0.2,0.4c0,0.1-0.1,0.2-0.3,0.4l0.4,0.1c-0.1,0.3-0.1,0.6-0.1,0.8s-0.1,0.5-0.3,0.7
			c0.2,0.1,0.3,0.3,0.3,0.7l-0.1,0.4l0.1,0.3l-0.3,1.5l0.3,0.5l-0.3,0.6l0.1,0.6l-0.1,0.4l0.2,0.3l-0.3,0.3l0.1,0.2l0,0.3l0,0.2
			l-0.1,0.3l0.2,0.3l-0.2,0.3l0.2,0.4l-0.2,0.1c0.1,0.2,0.1,0.3,0.1,0.4c0,0.2-0.1,0.3-0.2,0.4l0.2,0.2l-0.1,0.6v1.4
			c0.2,0.2,0.3,0.3,0.3,0.3c0.2,0,0.2-0.2,0.2-0.6v-0.1c0.1-0.1,0.2-0.2,0.4-0.4c0.1-0.2,0.2-0.3,0.2-0.3v-0.2l0.2-0.2
			c0-0.5,0.1-0.8,0.3-1l0-0.7l0.2,0l0-0.2l0.1,0.1l0.1-0.5l0.2-0.5v-0.2l0.2-0.4l-0.1-0.3l0.3-0.5l0.3-0.1v-0.2
			c0.2-0.1,0.3-0.3,0.3-0.6l0.4-0.5l0.2,0.1v-0.2l0.2-0.2c0-0.2,0.2-0.5,0.5-0.9c-0.1-0.1-0.1-0.1-0.1-0.2c0-0.1,0.1-0.1,0.2-0.1
			l0.1-0.2c0.1,0,0.3-0.1,0.7-0.4l0.2-0.6h0.2l-0.1-0.2c0.2-0.2,0.6-0.2,1-0.2l-0.3-0.1l0.4-0.2h0.1l-0.1-0.1l0.2-0.1l-0.1-0.1h0.4
			l0,0.1l0.9,0.1l0.2,0.4c0.1,0.1,0.1,0.4,0.2,1l0.3,0l0.1,0.5l0.3,0.3v0.4l0.1,0.2l0,0.3l0.4,0.2l0.1,0.7v0.1
			c0,0.2,0.1,0.6,0.4,1.1c-0.1,0.2-0.2,0.4-0.3,0.4c0.1,0.1,0.2,0.2,0.3,0.2c0.1,0,0.2,0,0.2-0.1c0,0.3-0.1,0.5-0.3,0.6l0.2,1.5
			c0.1,0,0.1,0.1,0.1,0.2l-0.1,0.3l0,1.9l0.1,0.3l-0.1,0.6L226,56.9z M225.2,54.2l-0.1-0.8v-0.6l-0.3-1.9l-0.3-1.4l-0.5-1.2
			l-0.9-1.4c0-0.1-0.1-0.3-0.3-0.4l-0.6,0.1l-0.2-0.1l-0.2,0.3l-0.5,0.1v0.5c0,0-0.1,0.1-0.3,0.1c-0.2,0-0.3,0.2-0.4,0.5
			c-0.3,0.3-0.5,0.5-0.6,0.6c-0.1,0.2-0.2,0.3-0.4,0.5h-0.2l-0.2,0.8l-0.3,0.4l-0.5,1.2c0,0.4-0.1,0.7-0.2,0.9s-0.3,0.5-0.5,0.8
			l0,0.6l-0.5,0.7L217,56l-0.4,0.3c0,0,0,0,0,0.1c0,0,0,0.1,0,0.1c0,0.1,0.1,0.3,0.1,0.6c0,0.3-0.1,0.6-0.2,0.9l-0.3,0.1l0.2,0.6
			l-0.3,0.1l0,0.4l-0.1,0.3c-0.2,0.1-0.3,0.3-0.3,0.4c0,0.1,0.1,0.2,0.2,0.2c-0.1,0.1-0.1,0.2-0.1,0.2c0,0.1,0,0.1,0.1,0.2l0.8-0.3
			l0.5,0c0,0.1,0,0.1,0.1,0.1h0c0.3,0,0.4,0.1,0.5,0.3l0.1-0.2l0.1,0.3c0.3,0,0.4,0.1,0.5,0.2v0.5c0.2,0.1,0.4,0.2,0.6,0.5h1.2
			l1-0.2l0.1-0.2l0.2,0.1l0.3-0.2c0.1-0.1,0.4-0.2,0.8-0.3l-0.1-0.2h0.3v-0.2h0.1c0.2,0,0.3-0.1,0.4-0.4c0.1-0.3,0.1-0.5,0.2-0.5
			l1-1.1v-0.5l0.4-0.8v-1l0.1-1.1l0-0.5L225.2,54.2z"/>
	</g>
</g>
</svg>
