<?xml version="1.0" encoding="utf-8"?>
<!-- Generator: Adobe Illustrator 25.2.3, SVG Export Plug-In . SVG Version: 6.00 Build 0)  -->
<svg version="1.1" xmlns="http://www.w3.org/2000/svg" xmlns:xlink="http://www.w3.org/1999/xlink" x="0px" y="0px"
	 viewBox="0 0 287.7 88.7" style="enable-background:new 0 0 287.7 88.7;" xml:space="preserve">
<style type="text/css">
	.st0{fill:#C69C6C;}
	.st1{fill:#CD7E9B;}
	.st2{fill:#904762;}
	.st3{fill:#C05D82;}
	.st4{fill:none;}
	.st5{fill:#3C3C3B;}
	.st6{font-family:'BradleyHandITC';}
	.st7{font-size:36.5707px;}
	.st8{fill:#302F30;}
	.st9{font-family:'Windows-Command-Prompt';}
</style>
<g id="Ebene_1">
	<path class="st0" d="M279.5,44.6h-44.1c-1.4,0-2.6-1.2-2.6-2.6v-7.9c0-1.4,1.2-2.6,2.6-2.6h44.1c1.4,0,2.6,1.2,2.6,2.6V42
		C282.1,43.4,281,44.6,279.5,44.6z"/>
	<polygon class="st1" points="228.9,36.3 285.7,36.3 277.4,62.4 237.2,62.4 	"/>
	<path class="st1" d="M273.6,31.8h-37.8c-1.1,0-2-0.9-2-2v-5c0-1.1,0.9-2,2-2h37.8c1.1,0,2,0.9,2,2v5
		C275.6,30.9,274.7,31.8,273.6,31.8z"/>
	<path class="st1" d="M268.6,25.1H241c-0.8,0-1.5-0.7-1.5-1.5v-3.8c0-0.8,0.7-1.5,1.5-1.5h27.6c0.8,0,1.5,0.7,1.5,1.5v3.8
		C270.1,24.4,269.4,25.1,268.6,25.1z"/>
	<path class="st1" d="M263.5,20.6h-15.1c-0.5,0-1-0.4-1-1v-2.5c0-0.6,0.5-1,1-1h15.1c0.6,0,1,0.5,1,1v2.5
		C264.5,20.1,264.1,20.6,263.5,20.6z"/>
	<path class="st2" d="M277,31.8h-32.1c-1.1,0-2-0.9-2-2v-5c0-1.1,0.9-2,2-2H277c1.1,0,2,0.9,2,2v5C279,30.9,278.1,31.8,277,31.8z"/>
	<path class="st2" d="M273,25.1h-24c-0.8,0-1.5-0.7-1.5-1.5v-3.8c0-0.8,0.7-1.5,1.5-1.5h24c0.8,0,1.5,0.7,1.5,1.5v3.8
		C274.5,24.4,273.8,25.1,273,25.1z"/>
	<path class="st2" d="M264.4,20.6h-12.8c-0.6,0-1-0.4-1-1v-2.5c0-0.5,0.4-1,1-1h12.8c0.6,0,1,0.5,1,1v2.5
		C265.4,20.1,265,20.6,264.4,20.6z"/>
	<path class="st3" d="M270.2,31.8h-27.6c-1.1,0-2-0.9-2-2v-5c0-1.1,0.9-2,2-2h27.6c1.1,0,2,0.9,2,2v5
		C272.2,30.9,271.3,31.8,270.2,31.8z"/>
	<path class="st3" d="M266.2,25.1h-19.5c-0.8,0-1.5-0.7-1.5-1.5v-3.8c0-0.8,0.7-1.5,1.5-1.5h19.5c0.8,0,1.5,0.7,1.5,1.5v3.8
		C267.7,24.4,267,25.1,266.2,25.1z"/>
	<path class="st3" d="M262.2,20.6h-11.5c-0.6,0-1-0.4-1-1v-2.5c0-0.6,0.4-1,1-1h11.5c0.5,0,1,0.4,1,1v2.5
		C263.2,20.1,262.7,20.6,262.2,20.6z"/>
	<path class="st3" d="M251.5,16.1c0-0.6,0.6-1.1,1.3-1.4c0.7-0.3,1.4-0.4,2-0.7c0.9-0.4,1.5-1.2,1.7-2c0.2,0,0.4,0.2,0.5,0.4
		c0.4,0.8,1.4,1.2,2.3,1.7s1.8,1.1,1.7,2"/>
	<polygon class="st3" points="228.9,36.3 281.2,36.3 273.6,62.4 236.5,62.4 	"/>
	<polygon class="st3" points="228.9,36.3 281.2,36.3 273.6,62.4 236.5,62.4 	"/>
	<polygon class="st1" points="228.9,36.3 276.7,36.3 269.7,62.4 235.9,62.4 	"/>
	<polygon class="st3" points="233.9,36.3 272.2,36.3 266.6,62.4 239.5,62.4 	"/>
	<polygon class="st2" points="238.4,36.3 276.7,36.3 271.1,62.4 244,62.4 	"/>
</g>
<g id="Ebene_2">
	<rect x="1.8" y="38.3" class="st4" width="241.8" height="70.1"/>
	<text transform="matrix(1 0 0 1 1.801 62.4315)"><tspan x="0" y="0" class="st5 st6 st7">Usab</tspan><tspan x="77.1" y="0" class="st8 st9 st7">ili</tspan><tspan x="125.1" y="0" class="st5 st6 st7">tyHub</tspan></text>
</g>
</svg>
